<svg xmlns="http://www.w3.org/2000/svg" width="208" height="79" viewBox="0 0 208 79" fill="none"><path d="M72.124 46.1033C71.4948 46.5466 70.772 46.7657 69.9452 46.7657C69.394 46.7657 68.874 46.6562 68.3852 46.4423C67.8964 46.2285 67.4752 45.9312 67.1216 45.5556C66.768 45.1801 66.4872 44.7419 66.2844 44.2256C66.0764 43.7144 65.9776 43.1615 65.9776 42.5721C65.9776 41.9827 66.0816 41.4298 66.2844 40.9187C66.4924 40.4075 66.768 39.959 67.1216 39.5782C67.4752 39.1974 67.8912 38.8949 68.3696 38.6759C68.848 38.462 69.3732 38.3525 69.9452 38.3525C70.7668 38.3525 71.5 38.5715 72.1344 38.9992C72.7688 39.4322 73.2368 40.0111 73.5332 40.7413H76.856C76.7364 39.9172 76.4608 39.1714 76.0188 38.5142C75.5768 37.857 75.0412 37.2884 74.4172 36.819C73.788 36.3443 73.086 35.9844 72.3112 35.7289C71.5364 35.4733 70.746 35.3429 69.9452 35.3429C68.9052 35.3429 67.938 35.5254 67.0488 35.8906C66.1544 36.2557 65.3848 36.7616 64.74 37.4084C64.0952 38.0552 63.5804 38.8219 63.2112 39.693C62.8368 40.5692 62.6548 41.5185 62.6548 42.5408C62.6548 43.5631 62.842 44.5437 63.2112 45.42C63.5856 46.2963 64.0952 47.0578 64.74 47.7046C65.3848 48.3513 66.1544 48.8625 67.0488 49.2224C67.9432 49.5875 68.9052 49.7701 69.9452 49.7701C70.8084 49.7701 71.6248 49.6397 72.3996 49.3737C73.1744 49.1077 73.866 48.7373 74.4744 48.2679C75.0828 47.7932 75.5976 47.2143 76.0188 46.5258C76.44 45.8373 76.7416 45.081 76.9184 44.2516H73.5332C73.2212 45.0392 72.748 45.6547 72.1188 46.0981L72.124 46.1033Z" fill="#FF5A00"></path><path d="M91.468 37.4241C90.8128 36.7877 90.0328 36.2766 89.128 35.9062C88.2232 35.5307 87.2456 35.3481 86.1848 35.3481C85.124 35.3481 84.1152 35.5359 83.2156 35.9062C82.3108 36.2818 81.536 36.7877 80.8756 37.4241C80.2204 38.0656 79.7056 38.8271 79.3312 39.7086C78.9568 40.5953 78.7748 41.5499 78.7748 42.5722C78.7748 43.5945 78.962 44.5438 79.3312 45.42C79.7056 46.2963 80.2204 47.0578 80.8756 47.7046C81.5308 48.3514 82.3108 48.8625 83.2156 49.2224C84.1152 49.5875 85.1084 49.7701 86.1848 49.7701C87.2612 49.7701 88.2232 49.5875 89.128 49.2224C90.0276 48.8573 90.8076 48.3514 91.468 47.7046C92.1232 47.0578 92.638 46.2911 93.0124 45.42C93.3868 44.5438 93.5688 43.5945 93.5688 42.5722C93.5688 41.5499 93.3816 40.5953 93.0124 39.7086C92.638 38.8219 92.1232 38.0604 91.468 37.4241ZM89.9392 44.1943C89.7312 44.7055 89.4556 45.1436 89.102 45.5087C88.7484 45.8738 88.322 46.1607 87.8228 46.3798C87.3236 46.5988 86.7776 46.7032 86.19 46.7032C85.6024 46.7032 85.0304 46.5936 84.526 46.3798C84.0268 46.1659 83.6004 45.8738 83.2468 45.5087C82.8932 45.1436 82.6124 44.7055 82.4096 44.1943C82.2016 43.6832 82.1028 43.1407 82.1028 42.5722C82.1028 42.0036 82.2068 41.4299 82.4096 40.9187C82.6176 40.4076 82.8932 39.9694 83.2468 39.6043C83.6004 39.2392 84.0268 38.9523 84.526 38.7333C85.0252 38.5194 85.5816 38.4099 86.19 38.4099C86.7984 38.4099 87.3236 38.5194 87.8228 38.7333C88.322 38.9523 88.7484 39.2392 89.102 39.6043C89.4556 39.9694 89.7364 40.4076 89.9392 40.9187C90.1472 41.4299 90.246 41.9828 90.246 42.5722C90.246 43.1616 90.142 43.6832 89.9392 44.1943Z" fill="#FF5A00"></path><path d="M108.43 36.9233C107.942 36.4226 107.338 36.0314 106.621 35.7602C105.903 35.4838 105.087 35.3481 104.166 35.3481C103.6 35.3481 103.074 35.4107 102.591 35.5411C102.112 35.6715 101.686 35.8332 101.312 36.0262C100.937 36.2244 100.63 36.4383 100.386 36.673C100.142 36.9077 99.9492 37.1268 99.814 37.3198L99.5488 35.6402H96.6056V49.478H99.9908L100.048 41.7741C100.048 41.263 100.136 40.7988 100.313 40.3867C100.49 39.9746 100.74 39.6252 101.062 39.3383C101.384 39.0514 101.748 38.8376 102.149 38.6915C102.549 38.5455 102.986 38.4725 103.459 38.4725C104.421 38.4725 105.18 38.7593 105.737 39.3279C106.298 39.8964 106.574 40.7257 106.574 41.8054V49.478H109.928V41.07C109.928 40.225 109.798 39.4478 109.543 38.7385C109.288 38.0291 108.914 37.4241 108.425 36.9233H108.43Z" fill="#FF5A00"></path><path d="M122.252 46.1033C121.623 46.5466 120.9 46.7657 120.073 46.7657C119.522 46.7657 119.002 46.6562 118.513 46.4423C118.024 46.2285 117.603 45.9312 117.25 45.5556C116.896 45.1801 116.615 44.7419 116.412 44.2256C116.204 43.7144 116.106 43.1615 116.106 42.5721C116.106 41.9827 116.21 41.4298 116.412 40.9187C116.62 40.4075 116.896 39.959 117.25 39.5782C117.603 39.1974 118.019 38.8949 118.498 38.6759C118.976 38.462 119.501 38.3525 120.073 38.3525C120.895 38.3525 121.628 38.5715 122.262 38.9992C122.897 39.4322 123.365 40.0111 123.661 40.7413H126.984C126.864 39.9172 126.589 39.1714 126.147 38.5142C125.705 37.857 125.169 37.2884 124.545 36.819C123.916 36.3443 123.214 35.9844 122.439 35.7289C121.664 35.4733 120.874 35.3429 120.073 35.3429C119.033 35.3429 118.066 35.5254 117.177 35.8906C116.282 36.2557 115.513 36.7616 114.868 37.4084C114.223 38.0552 113.708 38.8219 113.339 39.693C112.965 40.5692 112.783 41.5185 112.783 42.5408C112.783 43.5631 112.97 44.5437 113.339 45.42C113.714 46.2963 114.223 47.0578 114.868 47.7046C115.513 48.3513 116.282 48.8625 117.177 49.2224C118.071 49.5875 119.033 49.7701 120.073 49.7701C120.936 49.7701 121.753 49.6397 122.528 49.3737C123.302 49.1077 123.994 48.7373 124.602 48.2679C125.211 47.7932 125.726 47.2143 126.147 46.5258C126.568 45.8373 126.87 45.081 127.046 44.2516H123.661C123.349 45.0392 122.876 45.6547 122.247 46.0981L122.252 46.1033Z" fill="#FF5A00"></path><path d="M133.094 29.8141C132.907 29.6368 132.694 29.496 132.449 29.3864C132.205 29.2769 131.934 29.2247 131.638 29.2247C131.342 29.2247 131.076 29.2769 130.827 29.3864C130.582 29.496 130.369 29.6368 130.192 29.8141C130.016 29.9915 129.875 30.2053 129.766 30.4505C129.657 30.6956 129.605 30.9564 129.605 31.2329C129.605 31.5302 129.657 31.7962 129.766 32.0465C129.875 32.2917 130.016 32.5107 130.192 32.6933C130.369 32.8811 130.577 33.0219 130.827 33.121C131.071 33.2201 131.342 33.2671 131.638 33.2671C131.934 33.2671 132.2 33.2201 132.449 33.121C132.694 33.0219 132.912 32.8811 133.094 32.6933C133.281 32.5055 133.422 32.2917 133.52 32.0465C133.619 31.8014 133.666 31.5302 133.666 31.2329C133.666 30.9564 133.619 30.6956 133.52 30.4505C133.422 30.2053 133.281 29.9915 133.094 29.8141Z" fill="#FF5A00"></path><path d="M133.318 35.6403H129.932V49.478H133.318V35.6403Z" fill="#FF5A00"></path><path d="M158.527 36.9233C158.054 36.4226 157.472 36.0314 156.775 35.7602C156.078 35.4838 155.277 35.3481 154.378 35.3481C153.811 35.3481 153.28 35.416 152.792 35.5568C152.303 35.6924 151.85 35.875 151.44 36.1045C151.029 36.3287 150.67 36.5947 150.368 36.9025C150.062 37.205 149.796 37.518 149.557 37.8309C149.126 37.0642 148.512 36.4591 147.716 36.0158C146.921 35.5724 145.948 35.3534 144.789 35.3534C144.222 35.3534 143.712 35.4212 143.276 35.562C142.834 35.6976 142.444 35.8697 142.1 36.0627C141.757 36.2609 141.471 36.4748 141.248 36.7095C141.024 36.9442 140.842 37.1633 140.702 37.3563L140.348 35.6455H137.379V49.4832H140.764V41.7793C140.764 41.2682 140.847 40.804 141.014 40.3919C141.18 39.9799 141.414 39.6304 141.721 39.3435C142.022 39.0566 142.376 38.8428 142.782 38.6968C143.182 38.5507 143.608 38.4777 144.061 38.4777C144.981 38.4777 145.704 38.7646 146.224 39.3331C146.744 39.9016 147.004 40.731 147.004 41.8106V49.4832H150.389V41.6333C150.41 41.143 150.504 40.7049 150.67 40.3189C150.836 39.9329 151.07 39.6043 151.377 39.3279C151.679 39.0514 152.027 38.8428 152.422 38.6915C152.812 38.5455 153.234 38.4725 153.686 38.4725C154.606 38.4725 155.324 38.7593 155.834 39.3279C156.343 39.8964 156.598 40.7257 156.598 41.8054V49.478H159.983V41.07C159.983 40.225 159.858 39.4478 159.614 38.7385C159.37 38.0291 159.011 37.4241 158.543 36.9233H158.527Z" fill="#FF5A00"></path><path d="M175.074 37.278C174.455 36.6573 173.716 36.1827 172.853 35.8489C171.99 35.5151 171.028 35.3481 169.972 35.3481C168.813 35.3481 167.794 35.5516 166.915 35.9532C166.031 36.3548 165.292 36.8921 164.694 37.5597C164.096 38.2273 163.639 38.9941 163.327 39.8599C163.015 40.7257 162.854 41.6281 162.854 42.5722C162.854 43.5162 163.004 44.3925 163.311 45.2584C163.613 46.1242 164.06 46.8909 164.648 47.5586C165.235 48.2262 165.974 48.7634 166.852 49.1651C167.736 49.5667 168.745 49.7701 169.884 49.7701C171.569 49.7701 173.025 49.3528 174.252 48.5183C175.479 47.6837 176.327 46.5258 176.795 45.0497L173.352 45.081C173.02 45.6495 172.583 46.0825 172.042 46.3798C171.501 46.6771 170.862 46.8231 170.113 46.8231C169.447 46.8231 168.865 46.7136 168.376 46.4997C167.887 46.2859 167.471 45.9834 167.138 45.5974C166.806 45.2114 166.556 44.7576 166.39 44.2256C166.312 43.97 166.249 43.704 166.208 43.4276H176.904C176.946 43.2502 176.966 43.0729 176.977 42.8955C176.987 42.7182 176.992 42.52 176.992 42.3062C176.992 41.2838 176.826 40.345 176.493 39.4896C176.16 38.6342 175.682 37.8987 175.068 37.278H175.074ZM166.286 41.19C166.312 41.0648 166.343 40.9396 166.379 40.8196C166.535 40.298 166.769 39.839 167.086 39.4478C167.398 39.0566 167.799 38.7437 168.277 38.5194C168.756 38.2951 169.312 38.1804 169.941 38.1804C170.373 38.1804 170.799 38.2482 171.22 38.389C171.642 38.5246 172.026 38.7228 172.37 38.9784C172.713 39.234 172.999 39.5469 173.222 39.9225C173.446 40.298 173.592 40.7205 173.649 41.19H166.286Z" fill="#FF5A00"></path><path d="M190.533 29.2247V37.4137C190.044 36.8034 189.426 36.3079 188.682 35.9219C187.938 35.536 186.997 35.3482 185.858 35.3482C184.876 35.3482 183.976 35.5203 183.154 35.8646C182.333 36.2088 181.615 36.6991 181.007 37.3407C180.398 37.9822 179.925 38.7385 179.582 39.6148C179.239 40.4911 179.067 41.4612 179.067 42.5201C179.067 43.5789 179.239 44.5334 179.582 45.4253C179.925 46.3224 180.398 47.0892 181.007 47.7255C181.615 48.3671 182.333 48.8678 183.154 49.2329C183.976 49.598 184.881 49.7806 185.858 49.7806C186.976 49.7806 187.923 49.5876 188.698 49.2068C189.472 48.8209 190.107 48.3254 190.596 47.7151L190.715 49.4833H193.924V29.2299H190.538L190.533 29.2247ZM190.226 44.1839C190.018 44.7055 189.738 45.1593 189.374 45.5401C189.01 45.926 188.578 46.2286 188.079 46.4528C187.58 46.6771 187.023 46.7919 186.415 46.7919C185.806 46.7919 185.255 46.6771 184.751 46.4528C184.252 46.2286 183.825 45.9208 183.472 45.5401C183.118 45.1541 182.842 44.7055 182.65 44.1839C182.452 43.6623 182.354 43.1095 182.354 42.5148C182.354 41.9202 182.452 41.3726 182.65 40.8614C182.848 40.3502 183.118 39.9069 183.472 39.5313C183.825 39.1558 184.252 38.8637 184.751 38.6446C185.25 38.4308 185.806 38.3213 186.415 38.3213C187.023 38.3213 187.554 38.4308 188.063 38.6446C188.573 38.8637 189.01 39.1558 189.374 39.5313C189.738 39.9069 190.018 40.3502 190.226 40.8614C190.434 41.3726 190.533 41.9254 190.533 42.5148C190.533 43.1042 190.429 43.6623 190.226 44.1839Z" fill="#FF5A00"></path><path d="M55.0316 14.1768H50.0916V21.2756H55.0316V14.1768Z" fill="#642319"></path><path d="M55.0316 23.7428H50.0916V28.7031H55.0316V23.7428Z" fill="#642319"></path><path d="M55.0316 31.1702H50.0916V38.2638H55.0316V31.1702Z" fill="#642319"></path><path d="M46.0928 50.2969H40.5652V55.2572H46.0928C51.0224 55.2572 55.0316 51.2358 55.0316 46.2911V40.7518H50.0864V46.2911C50.0864 48.5027 48.2924 50.3021 46.0928 50.3021V50.2969Z" fill="#FF5A00"></path><path d="M38.0952 50.2969H31.0232V55.252H38.0952V50.2969Z" fill="#642319"></path><path d="M28.5636 50.2969H23.6184V55.252H28.5636V50.2969Z" fill="#642319"></path><path d="M21.1588 50.2969H14.0868V55.252H21.1588V50.2969Z" fill="#642319"></path><path d="M28.5636 40.731H23.6184V47.8298H28.5636V40.731Z" fill="#642319"></path><path d="M28.5636 57.7191H23.6184V64.8179H28.5636V57.7191Z" fill="#642319"></path><path d="M23.6184 32.7089V38.2534H28.5636V32.7089C28.5636 30.4974 30.3576 28.7031 32.5572 28.7031H38.0796V23.7428H32.5572C27.6276 23.7428 23.6184 27.7643 23.6184 32.7089Z" fill="#FF5A00"></path><path d="M64.5736 23.7428H57.4964V28.7031H64.5736V23.7428Z" fill="#642319"></path><path d="M47.632 23.7428H40.5548V28.7031H47.632V23.7428Z" fill="#642319"></path></svg>